<?xml version="1.0" encoding="UTF-8"?>
<svg xmlns="http://www.w3.org/2000/svg" xmlns:xlink="http://www.w3.org/1999/xlink" width="14px" height="7px" viewBox="0 0 13 7" version="1.1">
<g id="surface1">
<rect x="0" y="0" width="13" height="7" style="fill:rgb(69.803922%,13.333333%,20.392157%);fill-opacity:1;stroke:none;"/>
<path style="fill-rule:nonzero;fill:rgb(0%,0%,0%);fill-opacity:1;stroke-width:300;stroke-linecap:butt;stroke-linejoin:miter;stroke:rgb(100%,100%,100%);stroke-opacity:1;stroke-miterlimit:4;" d="M 0 450.502232 L 7410 450.502232 M 7410 1048.995536 L 0 1048.995536 M 0 1649.665179 L 7410 1649.665179 M 7410 2250.334821 L 0 2250.334821 M 0 2851.004464 L 7410 2851.004464 M 7410 3449.497768 L 0 3449.497768 " transform="matrix(0.00175439,0,0,0.00179487,0,0)"/>
<path style=" stroke:none;fill-rule:nonzero;fill:rgb(23.529412%,23.137255%,43.137255%);fill-opacity:1;" d="M 0 0 L 5.199219 0 L 5.199219 3.769531 L 0 3.769531 Z M 0 0 "/>
<path style=" stroke:none;fill-rule:nonzero;fill:rgb(100%,100%,100%);fill-opacity:1;" d="M 0.433594 0.160156 L 0.558594 0.550781 L 0.234375 0.308594 L 0.632812 0.308594 L 0.308594 0.550781 Z M 0.433594 0.160156 "/>
<path style=" stroke:none;fill-rule:nonzero;fill:rgb(100%,100%,100%);fill-opacity:1;" d="M 0.433594 0.914062 L 0.558594 1.304688 L 0.234375 1.0625 L 0.632812 1.0625 L 0.308594 1.304688 Z M 0.433594 0.914062 "/>
<path style=" stroke:none;fill-rule:nonzero;fill:rgb(100%,100%,100%);fill-opacity:1;" d="M 0.433594 1.667969 L 0.558594 2.058594 L 0.234375 1.816406 L 0.632812 1.816406 L 0.308594 2.058594 Z M 0.433594 1.667969 "/>
<path style=" stroke:none;fill-rule:nonzero;fill:rgb(100%,100%,100%);fill-opacity:1;" d="M 0.433594 2.421875 L 0.558594 2.8125 L 0.234375 2.570312 L 0.632812 2.570312 L 0.308594 2.8125 Z M 0.433594 2.421875 "/>
<path style=" stroke:none;fill-rule:nonzero;fill:rgb(100%,100%,100%);fill-opacity:1;" d="M 0.433594 3.175781 L 0.558594 3.566406 L 0.234375 3.324219 L 0.632812 3.324219 L 0.308594 3.566406 Z M 0.433594 3.175781 "/>
<path style=" stroke:none;fill-rule:nonzero;fill:rgb(100%,100%,100%);fill-opacity:1;" d="M 0.867188 0.539062 L 0.992188 0.929688 L 0.667969 0.6875 L 1.066406 0.6875 L 0.742188 0.929688 Z M 0.867188 0.539062 "/>
<path style=" stroke:none;fill-rule:nonzero;fill:rgb(100%,100%,100%);fill-opacity:1;" d="M 0.867188 1.292969 L 0.992188 1.683594 L 0.667969 1.441406 L 1.066406 1.441406 L 0.742188 1.683594 Z M 0.867188 1.292969 "/>
<path style=" stroke:none;fill-rule:nonzero;fill:rgb(100%,100%,100%);fill-opacity:1;" d="M 0.867188 2.046875 L 0.992188 2.4375 L 0.667969 2.195312 L 1.066406 2.195312 L 0.742188 2.4375 Z M 0.867188 2.046875 "/>
<path style=" stroke:none;fill-rule:nonzero;fill:rgb(100%,100%,100%);fill-opacity:1;" d="M 0.867188 2.800781 L 0.992188 3.191406 L 0.667969 2.949219 L 1.066406 2.949219 L 0.742188 3.191406 Z M 0.867188 2.800781 "/>
<path style=" stroke:none;fill-rule:nonzero;fill:rgb(100%,100%,100%);fill-opacity:1;" d="M 1.300781 0.160156 L 1.421875 0.550781 L 1.101562 0.308594 L 1.5 0.308594 L 1.175781 0.550781 Z M 1.300781 0.160156 "/>
<path style=" stroke:none;fill-rule:nonzero;fill:rgb(100%,100%,100%);fill-opacity:1;" d="M 1.300781 0.914062 L 1.421875 1.304688 L 1.101562 1.0625 L 1.5 1.0625 L 1.175781 1.304688 Z M 1.300781 0.914062 "/>
<path style=" stroke:none;fill-rule:nonzero;fill:rgb(100%,100%,100%);fill-opacity:1;" d="M 1.300781 1.667969 L 1.421875 2.058594 L 1.101562 1.816406 L 1.5 1.816406 L 1.175781 2.058594 Z M 1.300781 1.667969 "/>
<path style=" stroke:none;fill-rule:nonzero;fill:rgb(100%,100%,100%);fill-opacity:1;" d="M 1.300781 2.421875 L 1.421875 2.8125 L 1.101562 2.570312 L 1.5 2.570312 L 1.175781 2.8125 Z M 1.300781 2.421875 "/>
<path style=" stroke:none;fill-rule:nonzero;fill:rgb(100%,100%,100%);fill-opacity:1;" d="M 1.300781 3.175781 L 1.421875 3.566406 L 1.101562 3.324219 L 1.5 3.324219 L 1.175781 3.566406 Z M 1.300781 3.175781 "/>
<path style=" stroke:none;fill-rule:nonzero;fill:rgb(100%,100%,100%);fill-opacity:1;" d="M 1.734375 0.539062 L 1.855469 0.929688 L 1.53125 0.6875 L 1.933594 0.6875 L 1.609375 0.929688 Z M 1.734375 0.539062 "/>
<path style=" stroke:none;fill-rule:nonzero;fill:rgb(100%,100%,100%);fill-opacity:1;" d="M 1.734375 1.292969 L 1.855469 1.683594 L 1.53125 1.441406 L 1.933594 1.441406 L 1.609375 1.683594 Z M 1.734375 1.292969 "/>
<path style=" stroke:none;fill-rule:nonzero;fill:rgb(100%,100%,100%);fill-opacity:1;" d="M 1.734375 2.046875 L 1.855469 2.4375 L 1.53125 2.195312 L 1.933594 2.195312 L 1.609375 2.4375 Z M 1.734375 2.046875 "/>
<path style=" stroke:none;fill-rule:nonzero;fill:rgb(100%,100%,100%);fill-opacity:1;" d="M 1.734375 2.800781 L 1.855469 3.191406 L 1.53125 2.949219 L 1.933594 2.949219 L 1.609375 3.191406 Z M 1.734375 2.800781 "/>
<path style=" stroke:none;fill-rule:nonzero;fill:rgb(100%,100%,100%);fill-opacity:1;" d="M 2.167969 0.160156 L 2.289062 0.550781 L 1.964844 0.308594 L 2.367188 0.308594 L 2.042969 0.550781 Z M 2.167969 0.160156 "/>
<path style=" stroke:none;fill-rule:nonzero;fill:rgb(100%,100%,100%);fill-opacity:1;" d="M 2.167969 0.914062 L 2.289062 1.304688 L 1.964844 1.0625 L 2.367188 1.0625 L 2.042969 1.304688 Z M 2.167969 0.914062 "/>
<path style=" stroke:none;fill-rule:nonzero;fill:rgb(100%,100%,100%);fill-opacity:1;" d="M 2.167969 1.667969 L 2.289062 2.058594 L 1.964844 1.816406 L 2.367188 1.816406 L 2.042969 2.058594 Z M 2.167969 1.667969 "/>
<path style=" stroke:none;fill-rule:nonzero;fill:rgb(100%,100%,100%);fill-opacity:1;" d="M 2.167969 2.421875 L 2.289062 2.8125 L 1.964844 2.570312 L 2.367188 2.570312 L 2.042969 2.8125 Z M 2.167969 2.421875 "/>
<path style=" stroke:none;fill-rule:nonzero;fill:rgb(100%,100%,100%);fill-opacity:1;" d="M 2.167969 3.175781 L 2.289062 3.566406 L 1.964844 3.324219 L 2.367188 3.324219 L 2.042969 3.566406 Z M 2.167969 3.175781 "/>
<path style=" stroke:none;fill-rule:nonzero;fill:rgb(100%,100%,100%);fill-opacity:1;" d="M 2.601562 0.539062 L 2.722656 0.929688 L 2.398438 0.6875 L 2.800781 0.6875 L 2.476562 0.929688 Z M 2.601562 0.539062 "/>
<path style=" stroke:none;fill-rule:nonzero;fill:rgb(100%,100%,100%);fill-opacity:1;" d="M 2.601562 1.292969 L 2.722656 1.683594 L 2.398438 1.441406 L 2.800781 1.441406 L 2.476562 1.683594 Z M 2.601562 1.292969 "/>
<path style=" stroke:none;fill-rule:nonzero;fill:rgb(100%,100%,100%);fill-opacity:1;" d="M 2.601562 2.046875 L 2.722656 2.4375 L 2.398438 2.195312 L 2.800781 2.195312 L 2.476562 2.4375 Z M 2.601562 2.046875 "/>
<path style=" stroke:none;fill-rule:nonzero;fill:rgb(100%,100%,100%);fill-opacity:1;" d="M 2.601562 2.800781 L 2.722656 3.191406 L 2.398438 2.949219 L 2.800781 2.949219 L 2.476562 3.191406 Z M 2.601562 2.800781 "/>
<path style=" stroke:none;fill-rule:nonzero;fill:rgb(100%,100%,100%);fill-opacity:1;" d="M 3.035156 0.160156 L 3.15625 0.550781 L 2.832031 0.308594 L 3.234375 0.308594 L 2.910156 0.550781 Z M 3.035156 0.160156 "/>
<path style=" stroke:none;fill-rule:nonzero;fill:rgb(100%,100%,100%);fill-opacity:1;" d="M 3.035156 0.914062 L 3.15625 1.304688 L 2.832031 1.0625 L 3.234375 1.0625 L 2.910156 1.304688 Z M 3.035156 0.914062 "/>
<path style=" stroke:none;fill-rule:nonzero;fill:rgb(100%,100%,100%);fill-opacity:1;" d="M 3.035156 1.667969 L 3.15625 2.058594 L 2.832031 1.816406 L 3.234375 1.816406 L 2.910156 2.058594 Z M 3.035156 1.667969 "/>
<path style=" stroke:none;fill-rule:nonzero;fill:rgb(100%,100%,100%);fill-opacity:1;" d="M 3.035156 2.421875 L 3.15625 2.8125 L 2.832031 2.570312 L 3.234375 2.570312 L 2.910156 2.8125 Z M 3.035156 2.421875 "/>
<path style=" stroke:none;fill-rule:nonzero;fill:rgb(100%,100%,100%);fill-opacity:1;" d="M 3.035156 3.175781 L 3.15625 3.566406 L 2.832031 3.324219 L 3.234375 3.324219 L 2.910156 3.566406 Z M 3.035156 3.175781 "/>
<path style=" stroke:none;fill-rule:nonzero;fill:rgb(100%,100%,100%);fill-opacity:1;" d="M 3.464844 0.539062 L 3.589844 0.929688 L 3.265625 0.6875 L 3.667969 0.6875 L 3.34375 0.929688 Z M 3.464844 0.539062 "/>
<path style=" stroke:none;fill-rule:nonzero;fill:rgb(100%,100%,100%);fill-opacity:1;" d="M 3.464844 1.292969 L 3.589844 1.683594 L 3.265625 1.441406 L 3.667969 1.441406 L 3.34375 1.683594 Z M 3.464844 1.292969 "/>
<path style=" stroke:none;fill-rule:nonzero;fill:rgb(100%,100%,100%);fill-opacity:1;" d="M 3.464844 2.046875 L 3.589844 2.4375 L 3.265625 2.195312 L 3.667969 2.195312 L 3.34375 2.4375 Z M 3.464844 2.046875 "/>
<path style=" stroke:none;fill-rule:nonzero;fill:rgb(100%,100%,100%);fill-opacity:1;" d="M 3.464844 2.800781 L 3.589844 3.191406 L 3.265625 2.949219 L 3.667969 2.949219 L 3.34375 3.191406 Z M 3.464844 2.800781 "/>
<path style=" stroke:none;fill-rule:nonzero;fill:rgb(100%,100%,100%);fill-opacity:1;" d="M 3.898438 0.160156 L 4.023438 0.550781 L 3.699219 0.308594 L 4.101562 0.308594 L 3.777344 0.550781 Z M 3.898438 0.160156 "/>
<path style=" stroke:none;fill-rule:nonzero;fill:rgb(100%,100%,100%);fill-opacity:1;" d="M 3.898438 0.914062 L 4.023438 1.304688 L 3.699219 1.0625 L 4.101562 1.0625 L 3.777344 1.304688 Z M 3.898438 0.914062 "/>
<path style=" stroke:none;fill-rule:nonzero;fill:rgb(100%,100%,100%);fill-opacity:1;" d="M 3.898438 1.667969 L 4.023438 2.058594 L 3.699219 1.816406 L 4.101562 1.816406 L 3.777344 2.058594 Z M 3.898438 1.667969 "/>
<path style=" stroke:none;fill-rule:nonzero;fill:rgb(100%,100%,100%);fill-opacity:1;" d="M 3.898438 2.421875 L 4.023438 2.8125 L 3.699219 2.570312 L 4.101562 2.570312 L 3.777344 2.8125 Z M 3.898438 2.421875 "/>
<path style=" stroke:none;fill-rule:nonzero;fill:rgb(100%,100%,100%);fill-opacity:1;" d="M 3.898438 3.175781 L 4.023438 3.566406 L 3.699219 3.324219 L 4.101562 3.324219 L 3.777344 3.566406 Z M 3.898438 3.175781 "/>
<path style=" stroke:none;fill-rule:nonzero;fill:rgb(100%,100%,100%);fill-opacity:1;" d="M 4.332031 0.539062 L 4.457031 0.929688 L 4.132812 0.6875 L 4.535156 0.6875 L 4.210938 0.929688 Z M 4.332031 0.539062 "/>
<path style=" stroke:none;fill-rule:nonzero;fill:rgb(100%,100%,100%);fill-opacity:1;" d="M 4.332031 1.292969 L 4.457031 1.683594 L 4.132812 1.441406 L 4.535156 1.441406 L 4.210938 1.683594 Z M 4.332031 1.292969 "/>
<path style=" stroke:none;fill-rule:nonzero;fill:rgb(100%,100%,100%);fill-opacity:1;" d="M 4.332031 2.046875 L 4.457031 2.4375 L 4.132812 2.195312 L 4.535156 2.195312 L 4.210938 2.4375 Z M 4.332031 2.046875 "/>
<path style=" stroke:none;fill-rule:nonzero;fill:rgb(100%,100%,100%);fill-opacity:1;" d="M 4.332031 2.800781 L 4.457031 3.191406 L 4.132812 2.949219 L 4.535156 2.949219 L 4.210938 3.191406 Z M 4.332031 2.800781 "/>
<path style=" stroke:none;fill-rule:nonzero;fill:rgb(100%,100%,100%);fill-opacity:1;" d="M 4.765625 0.160156 L 4.890625 0.550781 L 4.566406 0.308594 L 4.96875 0.308594 L 4.644531 0.550781 Z M 4.765625 0.160156 "/>
<path style=" stroke:none;fill-rule:nonzero;fill:rgb(100%,100%,100%);fill-opacity:1;" d="M 4.765625 0.914062 L 4.890625 1.304688 L 4.566406 1.0625 L 4.96875 1.0625 L 4.644531 1.304688 Z M 4.765625 0.914062 "/>
<path style=" stroke:none;fill-rule:nonzero;fill:rgb(100%,100%,100%);fill-opacity:1;" d="M 4.765625 1.667969 L 4.890625 2.058594 L 4.566406 1.816406 L 4.96875 1.816406 L 4.644531 2.058594 Z M 4.765625 1.667969 "/>
<path style=" stroke:none;fill-rule:nonzero;fill:rgb(100%,100%,100%);fill-opacity:1;" d="M 4.765625 2.421875 L 4.890625 2.8125 L 4.566406 2.570312 L 4.96875 2.570312 L 4.644531 2.8125 Z M 4.765625 2.421875 "/>
<path style=" stroke:none;fill-rule:nonzero;fill:rgb(100%,100%,100%);fill-opacity:1;" d="M 4.765625 3.175781 L 4.890625 3.566406 L 4.566406 3.324219 L 4.96875 3.324219 L 4.644531 3.566406 Z M 4.765625 3.175781 "/>
</g>
</svg>
